<?xml version="1.0" encoding="utf-8"?>
<!-- Generator: Adobe Illustrator 22.0.1, SVG Export Plug-In . SVG Version: 6.00 Build 0)  -->
<svg version="1.1" id="Layer_1" xmlns="http://www.w3.org/2000/svg" xmlns:xlink="http://www.w3.org/1999/xlink" x="0px" y="0px"
	 viewBox="0 0 654 372" style="enable-background:new 0 0 654 372;" xml:space="preserve">
<style type="text/css">
	.st0{fill:none;stroke:#696B75;stroke-width:3;stroke-miterlimit:10;}
	.st1{fill:#6DBCDB;}
	.st2{fill:#FC4349;}
</style>
<g id="Layer_1_1_">
	<g>
		<g>
			<line class="st0" x1="48.6" y1="332.5" x2="48.6" y2="35.1"/>
			<line class="st0" x1="106.4" y1="309.7" x2="106.4" y2="58"/>
			<line class="st0" x1="238.7" y1="309.7" x2="238.7" y2="58"/>
			<line class="st0" x1="296.4" y1="327.5" x2="296.4" y2="40.1"/>
			<line class="st0" x1="354.2" y1="327.5" x2="354.2" y2="40.1"/>
			<line class="st0" x1="411.8" y1="309.7" x2="411.8" y2="58"/>
			<line class="st0" x1="542.9" y1="309.7" x2="542.9" y2="58"/>
			<line class="st0" x1="600.7" y1="332.5" x2="600.7" y2="35.1"/>
		</g>
		<path class="st1" d="M157.3,183.8c-34.7,67-70.5,140.4-137.5,140.4v32.1c75.6,0,115.4-71.2,152.5-143.3c-1.8-3.5-3.6-6.9-5.4-10.5
			C163.7,196.2,160.5,190,157.3,183.8z"/>
		<path class="st2" d="M629.7,11.3v32.1c-73.3,0-109.1,84.7-147.1,159.1c-38.7,75.7-78.7,153.8-157.8,153.8S205.6,278,166.9,202.4
			c-38-74.3-73.8-159.1-147.1-159.1V11.3C99,11.3,139,89.5,177.6,165.1c38,74.3,73.8,159.1,147.1,159.1s109.1-84.7,147.1-159.1
			C510.5,89.5,550.5,11.3,629.7,11.3z"/>
		<path class="st1" d="M324.7,11.3c-75.6,0-115.4,71.2-152.5,143.3c1.8,3.5,3.6,6.9,5.4,10.5c3.2,6.2,6.4,12.5,9.6,18.6
			c34.7-66.9,70.5-140.3,137.5-140.3s102.8,73.4,137.5,140.4c3.2-6.2,6.4-12.4,9.6-18.6c1.8-3.5,3.6-6.9,5.4-10.5
			C440.1,82.5,400.3,11.3,324.7,11.3z"/>
		<path class="st1" d="M477.2,212.9c37.1,72.2,76.9,143.4,152.5,143.4v-32.1c-67.1,0-102.8-73.4-137.5-140.4
			c-3.2,6.2-6.4,12.4-9.6,18.6C480.8,206,479,209.5,477.2,212.9z"/>
		<path class="st1" d="M187.2,183.8c-3.2-6.2-6.4-12.4-9.6-18.6c-1.8-3.5-3.6-6.9-5.4-10.5c-1.8,3.5-3.6,6.9-5.4,10.5
			c-3.2,6.2-6.4,12.5-9.6,18.6c3.2,6.2,6.4,12.4,9.6,18.6c1.8,3.5,3.6,6.9,5.4,10.5c1.8-3.5,3.6-6.9,5.4-10.5
			C180.8,196.2,184,190,187.2,183.8z"/>
	</g>
</g>
</svg>
